<svg xmlns="http://www.w3.org/2000/svg" xmlns:xlink="http://www.w3.org/1999/xlink" viewBox="0 0 100 125" version="1.1" xml:space="preserve" style="" x="0px" y="0px" fill-rule="evenodd" clip-rule="evenodd" stroke-linejoin="round" stroke-miterlimit="1.41421"><path d="M50,9.95497c22.0914,0 40,17.9086 40,40c0,22.0914 -17.9086,40 -40,40c-22.0914,0 -40,-17.9086 -40,-40c0,-22.0914 17.9086,-40 40,-40ZM67.3431,53.4853c-4.65217,4.65217 -19.4483,19.4483 -24.1005,24.1005c-0.375074,0.375072 -0.883783,0.585784 -1.41422,0.585782c-0.530433,-1.6613e-06 -1.03914,-0.210717 -1.41421,-0.585791c-1.23235,-1.23235 -3.01028,-3.01028 -4.24263,-4.24263c-0.375074,-0.375072 -0.585789,-0.883779 -0.585791,-1.41421c-1.64159e-06,-0.530433 0.210711,-1.03914 0.585782,-1.41422l20.5147,-20.5147l-20.5147,-20.5147c-0.375075,-0.375073 -0.58579,-0.883783 -0.585789,-1.41422c3.2521e-07,-0.530435 0.210716,-1.03914 0.585791,-1.41422c1.23235,-1.23235 3.01028,-3.01028 4.24263,-4.24263c0.375073,-0.375075 0.883782,-0.585791 1.41422,-0.585791c0.530435,-2.8916e-07 1.03914,0.210715 1.41422,0.585789c4.9194,4.9194 21.2522,21.2522 26.1716,26.1716c0.375075,0.375073 0.58579,0.883783 0.585789,1.41422c-3.2521e-07,0.530435 -0.210716,1.03914 -0.585791,1.41422l-2.07106,2.07106Z" style="" fill="#fff"/></svg>
