<svg xmlns="http://www.w3.org/2000/svg" xmlns:xlink="http://www.w3.org/1999/xlink" version="1.1" x="0px" y="0px" viewBox="0 0 100 125" enable-background="new 0 0 100 100" xml:space="preserve"><g><g><path d="M27.2,51.3c8.3-14.4,16.6-28.8,24.9-43.2c-1.4,0-2.9,0-4.3,0c4.4,7.6,8.8,15.3,13.2,22.9c4.7,8.2,11.1,16.7,14.1,25.7    c5.9,17.5-9,34.4-26.5,34C28.9,90.2,18.2,67.7,27.2,51.3c1.6-2.8-2.8-5.4-4.3-2.5c-8.9,16.2-2.5,37.6,15.2,44.6    c18,7.2,37.9-3.4,42.5-22.2C83.8,57.8,76,46.9,69.7,36C63.9,25.8,58,15.7,52.2,5.6c-0.9-1.6-3.4-1.6-4.3,0    C39.5,20,31.2,34.3,22.9,48.7C21.3,51.5,25.6,54.1,27.2,51.3z"/></g></g></svg>
