<?xml version="1.0" encoding="utf-8"?>
<svg xmlns="http://www.w3.org/2000/svg"
	xmlns:xlink="http://www.w3.org/1999/xlink"
	width="43px" height="31px" viewBox="0 0 43 31">
<path fillRule="evenodd" d="M 39.53 19.24C 39.78 18.3 39.93 17.3 39.93 16.28 39.93 9.86 34.77 4.65 28.41 4.65 26.78 4.65 25.22 5 23.81 5.62 22.4 2.32 19.15 0 15.36 0 10.27 0 6.14 4.16 6.14 9.3 6.14 9.65 6.21 9.97 6.24 10.31 2.56 12.03 0 15.78 0 20.15 0 26.14 4.81 31 10.75 31 10.75 31 36.86 31 36.86 31 40.25 31 43 28.22 43 24.8 43 22.35 41.58 20.25 39.53 19.24ZM 36.86 29.45C 36.86 29.45 10.75 29.45 10.75 29.45 5.67 29.45 1.54 25.28 1.54 20.15 1.54 16.55 3.64 13.24 6.89 11.72 6.89 11.72 7.89 11.25 7.89 11.25 7.89 11.25 7.77 10.14 7.77 10.14 7.76 10.03 7.74 9.91 7.73 9.8 7.71 9.63 7.68 9.47 7.68 9.3 7.68 5.03 11.12 1.55 15.36 1.55 18.42 1.55 21.19 3.39 22.4 6.23 22.4 6.23 23.02 7.66 23.02 7.66 23.02 7.66 24.43 7.04 24.43 7.04 25.69 6.48 27.03 6.2 28.41 6.2 33.91 6.2 38.39 10.72 38.39 16.28 38.39 17.11 38.28 17.98 38.05 18.85 38.05 18.85 37.73 20.08 37.73 20.08 37.73 20.08 38.86 20.64 38.86 20.64 40.47 21.43 41.46 23.02 41.46 24.8 41.46 27.36 39.4 29.45 36.86 29.45ZM 22.27 22.09C 22.27 22.09 22.27 10.85 22.27 10.85 22.27 10.85 20.73 10.85 20.73 10.85 20.73 10.85 20.73 22.09 20.73 22.09 20.73 22.09 16.51 17.83 16.51 17.83 16.51 17.83 15.74 18.99 15.74 18.99 15.74 18.99 21.5 24.8 21.5 24.8 21.5 24.8 27.26 18.99 27.26 18.99 27.26 18.99 26.49 17.83 26.49 17.83 26.49 17.83 22.27 22.09 22.27 22.09Z" fill="rgb(131,95,167)"/></svg>