<?xml version="1.0" encoding="utf-8"?>
<svg xmlns="http://www.w3.org/2000/svg"
	xmlns:xlink="http://www.w3.org/1999/xlink"
	width="53px" height="44px" viewBox="0 0 53 44">
<path fillRule="evenodd" d="M 51.53 1.16C 50.1-0.25 47.65 0.76 47.65 0.76 44.07 1.46 24.24 21 24.24 21 24.24 21 22.22 22.98 22.22 22.98 22.22 22.98 17.16 29.92 17.16 29.92 17.16 29.92 15.14 31.91 15.14 31.91 15.14 31.91 10.08 30.92 8.06 33.89 6.04 39.84 5.03 41.83-0.02 41.83 17.16 48.77 20.19 36.87 20.19 36.87 20.19 36.87 22.22 34.88 22.22 34.88 22.22 34.88 29.29 29.92 29.29 29.92 29.29 29.92 31.31 27.94 31.31 27.94 31.31 27.94 51.22 8.48 51.94 4.97 51.94 4.97 52.96 2.56 51.53 1.16ZM 9.58 42.02C 8.58 42.02 7.51 41.91 6.37 41.7 7.94 40.17 8.85 37.84 9.88 34.82 10.68 33.88 12.3 33.73 13.23 33.73 14.1 33.73 14.75 33.85 14.75 33.85 14.88 33.88 15.01 33.89 15.14 33.89 15.6 33.89 16.05 33.73 16.41 33.44 16.41 33.44 18.64 35.63 18.64 35.63 18.45 35.85 18.3 36.1 18.23 36.39 18.17 36.6 16.62 42.02 9.58 42.02ZM 50.06 4.22C 50.02 4.33 49.98 4.47 49.95 4.58 49.29 6.68 39.22 17.4 29.89 26.53 29.89 26.53 27.98 28.4 27.98 28.4 27.98 28.4 21.04 33.27 21.04 33.27 20.95 33.33 20.87 33.4 20.79 33.48 20.79 33.48 20.13 34.13 20.13 34.13 20.13 34.13 17.94 31.97 17.94 31.97 17.94 31.97 18.59 31.33 18.59 31.33 18.67 31.25 18.74 31.17 18.81 31.08 18.81 31.08 23.76 24.27 23.76 24.27 23.76 24.27 25.67 22.4 25.67 22.4 34.97 13.23 45.9 3.36 48.09 2.7 48.22 2.67 48.31 2.64 48.43 2.59 48.56 2.54 49.04 2.4 49.5 2.4 49.79 2.4 49.99 2.45 50.1 2.56 50.4 2.85 50.24 3.79 50.06 4.22Z" fill="rgb(61,209,173)"/></svg>