<?xml version="1.0" encoding="utf-8"?>
<svg xmlns="http://www.w3.org/2000/svg"
	xmlns:xlink="http://www.w3.org/1999/xlink"
	width="46px" height="46px" viewBox="0 0 46 46">
<path fillRule="evenodd" d="M 37 0C 37 0 4 33 4 33 4 33 0 46 0 46 0 46 13 42 13 42 13 42 46 9 46 9 46 9 37 0 37 0ZM 43.17 9C 43.17 9 13.09 39.09 13.09 39.09 13.09 39.09 6.91 32.91 6.91 32.91 6.91 32.91 37 2.83 37 2.83 37 2.83 43.17 9 43.17 9ZM 3.02 42.98C 3.02 42.98 5.77 34.06 5.77 34.06 5.77 34.06 5.91 33.91 5.91 33.91 5.91 33.91 12.09 40.09 12.09 40.09 12.09 40.09 11.94 40.23 11.94 40.23 11.94 40.23 3.02 42.98 3.02 42.98Z" fill="rgb(61,209,173)"/></svg>