<?xml version="1.0" encoding="utf-8"?>
<svg xmlns="http://www.w3.org/2000/svg"
	xmlns:xlink="http://www.w3.org/1999/xlink"
	width="44px" height="44px" viewBox="0 0 44 44">
<path fillRule="evenodd" d="M 30 0C 30 0 30 12.5 30 12.5 30 12.5 12.5 30 12.5 30 12.5 30 0 30 0 30 0 30 0 44 0 44 0 44 14 44 14 44 14 44 14 31.5 14 31.5 14 31.5 31.5 14 31.5 14 31.5 14 44 14 44 14 44 14 44 0 44 0 44 0 30 0 30 0ZM 12 42C 12 42 2 42 2 42 2 42 2 32 2 32 2 32 12 32 12 32 12 32 12 42 12 42ZM 42 12C 42 12 32 12 32 12 32 12 32 2 32 2 32 2 42 2 42 2 42 2 42 12 42 12Z" fill="rgb(61,209,173)"/></svg>