<?xml version="1.0" encoding="utf-8"?>
<svg xmlns="http://www.w3.org/2000/svg"
	xmlns:xlink="http://www.w3.org/1999/xlink"
	width="45px" height="45px" viewBox="0 0 45 45">
<path fillRule="evenodd" d="M 28.71 0.69C 19.78 0.69 12.53 7.93 12.53 16.87 12.53 20.95 14.06 24.67 16.55 27.51 16.55 27.51 0.91 43.15 0.91 43.15 0.91 43.15 2.42 44.67 2.42 44.67 2.42 44.67 18.07 29.03 18.07 29.03 20.91 31.52 24.63 33.04 28.71 33.04 37.64 33.04 44.89 25.8 44.89 16.87 44.89 7.93 37.64 0.69 28.71 0.69ZM 28.71 31.02C 20.89 31.02 14.56 24.69 14.56 16.87 14.56 9.05 20.89 2.71 28.71 2.71 36.53 2.71 42.86 9.05 42.86 16.87 42.86 24.69 36.53 31.02 28.71 31.02Z" fill="rgb(61,209,173)"/></svg>