<?xml version="1.0" encoding="utf-8"?>
<svg xmlns="http://www.w3.org/2000/svg"
	xmlns:xlink="http://www.w3.org/1999/xlink"
	width="63px" height="79px" viewBox="0 0 63 79">
<path fillRule="evenodd" d="M 54.96 53.98C 54.96 53.98 54.8 54.16 54.8 54.16 54.8 54.16 45.09 64.52 45.09 64.52 45.09 64.52 45.3 64.77 45.3 64.77 45.3 64.77 42.94 66.81 42.94 66.81 42.94 66.81 40.81 69.08 40.81 69.08 40.81 69.08 40.57 68.86 40.57 68.86 40.57 68.86 40.32 69.07 40.32 69.07 40.32 69.07 38.27 66.73 38.27 66.73 38.27 66.73 35.98 64.6 35.98 64.6 35.98 64.6 36.21 64.37 36.21 64.37 36.21 64.37 35.7 63.79 35.7 63.79 35.7 63.79 35.7 63.79 35.7 63.79 35.7 63.79 33.57 61.35 33.57 61.35 33.57 61.35 31.37 58.84 31.37 58.84 31.37 58.84 31.38 58.83 31.38 58.83 31.38 58.83 29.66 56.86 29.66 56.86 29.66 56.86 29.67 56.85 29.67 56.85 29.67 56.85 19.19 44.72 19.19 44.72 19.18 44.71 19.17 44.7 19.16 44.69 18.09 43.52 17.31 42.22 16.86 40.81 16.36 39.36 16.19 37.81 16.38 36.21 16.57 33.04 17.96 30.27 20.4 28.22 22.81 26.2 25.72 25.28 28.83 25.56 30.7 25.66 32.41 26.19 33.91 27.14 34.97 27.73 35.93 28.53 36.77 29.5 36.77 29.5 45.83 39.93 45.83 39.93 47.02 41.3 46.87 43.37 45.49 44.56 44.12 45.74 42.03 45.59 40.84 44.22 40.84 44.22 31.77 33.79 31.77 33.79 31.76 33.78 31.75 33.77 31.74 33.76 31.41 33.36 31.05 33.07 30.66 32.86 30.57 32.81 30.49 32.76 30.41 32.71 29.85 32.34 29.2 32.15 28.43 32.11 28.38 32.11 28.32 32.11 28.27 32.1 26.89 31.97 25.74 32.33 24.66 33.23 23.57 34.14 23.03 35.24 22.96 36.67 22.95 36.74 22.95 36.82 22.94 36.9 22.86 37.55 22.91 38.14 23.11 38.69 23.12 38.73 23.13 38.77 23.14 38.8 23.31 39.34 23.62 39.84 24.09 40.33 24.11 40.35 24.12 40.37 24.14 40.39 24.15 40.41 24.18 40.42 24.19 40.45 24.19 40.45 36.81 55.05 36.81 55.05 36.81 55.05 36.81 55.05 36.81 55.05 36.81 55.05 38.58 57.07 38.58 57.07 38.58 57.07 40.73 59.54 40.73 59.54 40.73 59.54 49.9 49.77 49.9 49.77 54.27 44.32 56.4 38.41 56.4 31.71 56.4 24.67 53.99 18.84 49.03 13.89 44.13 9.06 38.39 6.66 31.48 6.56 24.57 6.66 18.84 9.06 13.96 13.9 9.01 18.84 6.6 24.67 6.6 31.71 6.6 38.44 8.73 44.37 13.13 49.84 13.13 49.84 34.04 73.55 34.04 73.55 35.24 74.92 35.1 76.99 33.73 78.18 33.11 78.73 32.33 79 31.56 79 30.64 79 29.73 78.62 29.08 77.88 29.08 77.88 10.17 56.45 10.17 56.45 10.17 56.45 10.06 56.54 10.06 56.54 10.06 56.54 8 53.97 8 53.97 2.69 47.38 0 39.88 0 31.71 0 22.97 3.13 15.41 9.29 9.25 15.38 3.22 22.83 0.11 31.43 0 31.43 0 31.48 0 31.48 0 31.48 0 31.52 0 31.52 0 40.12 0.11 47.58 3.22 53.69 9.24 59.87 15.41 63 22.97 63 31.71 63 39.89 60.3 47.38 54.96 53.98Z" fill="rgb(131,95,167)"/></svg>