<svg xmlns="http://www.w3.org/2000/svg" width="50" height="31" viewBox="0 0 50 31"><path d="M34.98 30.89c-3.93 0-7.45-1.41-10.06-3.82-2.62 2.41-6.14 3.82-9.96 3.82-8.25 0-14.98-6.74-14.98-14.99S6.71.9 14.96.9c3.82 0 7.34 1.41 9.96 3.83C27.63 2.31 31.16.9 34.98.9c8.24 0 14.98 6.75 14.98 15s-6.74 14.99-14.98 14.99zM6.71 12.28L5.1 17 5 12.28H2.69l-1.31 7.64h1.51l1.01-5.83.1 5.83h1.1l2.12-5.83-.91 5.83h1.61l1.31-7.64H6.71zm4.83 1.2c-.6 0-1.1.1-1.91.3 0 0-.2 1.31-.2 1.41.3-.1.9-.3 1.71-.3.7 0 1.01.2 1.01.61 0 .1 0 .2-.11.4h-.7c-1.81 0-2.82.9-2.82 2.41 0 1.01.61 1.71 1.51 1.71.71 0 1.31-.2 1.71-.7v.6s1.11 0 1.31-.1c.1-.5.4-2.41.5-3.32.1-.5.1-.9.1-1.21 0-1.2-.7-1.81-2.11-1.81zm4.93 0c-1.81 0-2.41 1.01-2.41 2.12 0 .8.3 1.3 1.2 1.71.71.3.81.4.81.7 0 .4-.3.6-.91.6-.5 0-1 0-1.51-.2 0 0-.2 1.31-.2 1.41.41.1.71.2 1.71.2 1.71 0 2.52-.7 2.52-2.11 0-.8-.3-1.31-1.11-1.71-.7-.3-.8-.4-.9-.81 0-.3.3-.5.8-.5.4 0 .81 0 1.21.1l.2-1.41c-.4 0-1.01-.1-1.41-.1zm3.82-.7h-1.61l-.7 4.22c-.1.61-.2 1.31-.2 1.61 0 .91.5 1.41 1.31 1.41.4 0 .8-.1 1.2-.2l.2-1.41c-.1.1-.2.1-.4.1-.3 0-.5-.2-.7-.5 0-.2.3-1.61.5-2.82h.8l.21-1.51h-.81l.2-.9zm3.42.7c-1.61 0-2.81 1.61-2.81 3.73 0 1.81.9 2.71 2.71 2.71.61 0 1.11 0 1.71-.2l.3-1.51c-.6.3-1.1.4-1.71.4-.9 0-1.51-.4-1.4-1.4h3.21c.1-.61.2-1.01.2-1.51 0-1.31-.9-2.22-2.21-2.22zm4.53 1.21c0-.3.1-.6.1-.91h-1.51c-.2 1.92-.5 3.83-.8 5.74l-.11.4h1.61c.61-3.82.71-4.53 1.71-4.42.1-.81.41-1.51.61-1.82-.71-.1-1.11.31-1.61 1.01zm5.03-2.62c-2.22 0-3.72 1.92-3.72 4.63 0 2.02 1.1 3.32 2.81 3.32.4 0 .81 0 1.41-.2l.4-1.91c-.6.3-1 .4-1.41.4-.9 0-1.5-.7-1.5-1.81 0-1.61.9-2.82 2.11-2.82.4 0 .8.1 1.41.41l.3-1.61c-.3-.1-1.11-.41-1.81-.41zm4.02 1.41c-.6 0-1.11.1-1.91.3 0 0-.2 1.31-.2 1.41.3-.1.9-.3 1.71-.3.7 0 1 .2 1 .61 0 .1 0 .2-.1.4h-.7c-1.81 0-2.82.9-2.82 2.41 0 1.01.61 1.71 1.51 1.71.71 0 1.31-.2 1.71-.7v.6h1.31c0-.5.3-2.41.5-3.42.1-.5.1-.9.1-1.21 0-1.2-.7-1.81-2.11-1.81zm4.43 1.21c0-.3.1-.6.1-.91h-1.51c-.2 1.92-.51 3.83-.81 5.74l-.1.4h1.61c.5-3.82.71-4.53 1.71-4.42.1-.81.4-1.51.61-1.82-.71-.1-1.11.31-1.61 1.01zm4.82-.3c-.4-.5-.9-.81-1.5-.81-1.41 0-2.62 1.81-2.62 3.83 0 1.61.8 2.61 2.01 2.61.61 0 1.11-.2 1.51-.7l-.08.5h1.49l1.21-7.65h-1.61l-.41 2.22zm-1.61 4.12c-.5 0-.8-.4-.8-1.2 0-1.21.6-2.12 1.31-2.12.6 0 .9.41.8 1.21 0 1.21-.5 2.11-1.31 2.11zm-8.44.1c-.41 0-.61-.2-.61-.6 0-.6.4-.9 1.41-.9h.4c-.1.9-.5 1.5-1.2 1.5zM22.61 16.1c.1-.71.5-1.11 1-1.11 1.01 0 .81.91.81 1.11h-1.81zm-11.87 2.51c-.41 0-.61-.2-.61-.6 0-.6.51-.9 1.41-.9h.4c-.1.9-.5 1.5-1.2 1.5z" fill="#FFF"/></svg>