<svg xmlns="http://www.w3.org/2000/svg" width="60" height="20" viewBox="0 0 60 20"><path d="M57.24 15h-3.37L56.61-.02h3.41L57.24 15zm-4.9 0h-3.32l.22-1.18c-1.81 2.14-6.34 2.28-5.61-2.64.52-2.86 3.03-3.78 6.75-3.78.26-1.28-.47-1.59-1.73-1.54-1.26.04-2.77.54-3.24.81l.29-2.86c.96-.23 2.21-.73 3.8-.73 2.32-.05 4.87.77 4.28 4.09L52.34 15zm-3.25-4.95c-.63 0-1.66.17-2.03.95-.48.91.18 1.68.93 1.63.84-.04 1.54-.49 1.73-1.54.07-.37.11-.68.18-1.04h-.81zm-9.81 0h-2.56L35.8 15h-3.59L34.95.03h6.17c1.78 0 3.93 1.59 3.29 5.1-.55 3.09-2.62 4.92-5.13 4.92zm.48-6.97h-1.78l-.73 4.09h1.66c.92 0 1.88-.91 2.1-2.04.22-1.14-.33-2.05-1.25-2.05zM21.81 19.99l2.42-4.91-1.35-11.79h3.31l.54 6.97 3.24-6.97h3.43l-7.89 16.7h-3.7zM20.02 15H16.7l.22-1.18c-1.75 2.14-6.23 2.28-5.5-2.64.51-2.86 2.98-3.78 6.66-3.78.22-1.28-.5-1.59-1.74-1.54-1.24.04-2.73.54-3.17.81l.29-2.86c.91-.23 2.15-.73 3.72-.73 2.29-.05 4.84.77 4.25 4.09L20.02 15zm-3.24-4.95c-.59 0-1.61.17-1.97.95-.47.91.15 1.68.87 1.63.84-.04 1.57-.49 1.75-1.54.04-.37.11-.68.18-1.04h-.83zm-9.66-.01h-2.6L3.63 15H0L2.75.03h6.18c1.82 0 3.93 1.59 3.3 5.09-.56 3.1-2.63 4.92-5.11 4.92zm.48-6.96H5.82l-.78 4.09h1.71c.92 0 1.85-.91 2.07-2.04.26-1.14-.33-2.05-1.22-2.05z" fill="#FFF"/></svg>