<svg xmlns="http://www.w3.org/2000/svg" width="49" height="17" viewBox="0 0 49 17"><path d="M45.36 16.54l-.5-2.35h-4.95l-.79 2.35h-4.06L40.9 2.12c.3-.72.89-1.13 1.68-1.13h3.37l2.97 15.55h-3.56zM43.28 5.19l-2.08 5.83h3.27l-1.19-5.83zM31.59 3.96c-1.18.21-1.68.82-1.68 1.33-.1 1.84 5.45 2.15 5.45 6.03 0 3.28-2.68 5.32-6.74 5.32-1.78 0-3.46-.41-4.35-.82l.69-3.37c.89.51 1.98 1.02 3.96 1.02 1.19 0 2.38-.51 2.38-1.53 0-.72-.5-1.23-1.98-1.95-1.39-.71-3.37-1.94-3.37-4.19 0-2.96 2.67-5.11 6.53-5.11 1.49 0 2.78.41 3.67.71l-.69 3.28c-1.79-.82-3.27-.82-3.87-.72zM17.63 16.54L20.9.99h3.86l-3.17 15.55h-3.96zm-8.91-.1L5.65 4.06c-.19-.71-.29-1.02-.89-1.33C3.77 2.22 2.29 1.71.9 1.4L1 .99h6.63c.8 0 1.59.52 1.79 1.54l1.68 9L15.16.99v-.1h4.06l-6.34 15.55H8.72z" fill="#FFF"/></svg>