<?xml version="1.0" standalone="no"?>
<!DOCTYPE svg PUBLIC "-//W3C//DTD SVG 20010904//EN"
 "http://www.w3.org/TR/2001/REC-SVG-20010904/DTD/svg10.dtd">
<svg version="1.0" xmlns="http://www.w3.org/2000/svg"
 width="70.000000pt" height="70.000000pt" viewBox="0 0 70.000000 70.000000"
 preserveAspectRatio="xMidYMid meet">
<metadata>
Created by potrace 1.11, written by Peter Selinger 2001-2013
</metadata>
<g transform="translate(0.000000,70.000000) scale(0.100000,-0.100000)"
fill="#000000" stroke="none">
<path d="M468 642 c-8 -2 -20 -13 -26 -25 -18 -34 -55 -98 -85 -145 l-27 -42
40 -67 c22 -37 40 -71 40 -75 0 -5 5 -6 10 -3 6 4 9 3 8 -2 -3 -10 43 -93 53
-93 9 0 53 72 51 83 -1 4 2 7 7 7 9 0 21 20 55 87 6 13 14 23 19 23 4 0 7 5 7
12 0 6 6 19 13 27 8 9 25 37 40 62 l26 46 -108 54 c-59 30 -114 53 -123 51z"/>
<path d="M0 400 l0 -240 25 -12 c14 -6 25 -15 25 -20 0 -4 3 -7 8 -7 15 3 72
-23 72 -34 0 -6 2 -8 6 -5 3 3 22 -2 42 -13 30 -14 39 -15 47 -5 6 8 10 103
10 241 0 217 -1 228 -20 239 -11 6 -23 16 -27 21 -4 6 -8 7 -8 3 0 -4 -34 11
-76 32 -42 22 -82 40 -90 40 -12 0 -14 -40 -14 -240z"/>
<path d="M260 370 l0 -110 78 -38 c42 -20 79 -40 82 -43 3 -3 13 -8 22 -12 22
-8 15 11 -28 78 -17 28 -57 92 -89 143 -32 50 -59 92 -61 92 -2 0 -4 -50 -4
-110z"/>
<path d="M670 440 c-14 -23 -32 -53 -40 -65 -8 -13 -43 -70 -78 -127 l-62
-103 97 -47 c54 -26 101 -44 106 -39 4 4 6 101 5 215 l-3 208 -25 -42z"/>
</g>
</svg>
