<?xml version="1.0" standalone="no"?>
<!DOCTYPE svg PUBLIC "-//W3C//DTD SVG 20010904//EN"
 "http://www.w3.org/TR/2001/REC-SVG-20010904/DTD/svg10.dtd">
<svg version="1.0" xmlns="http://www.w3.org/2000/svg"
 width="98.000000pt" height="98.000000pt" viewBox="0 0 98.000000 98.000000"
 preserveAspectRatio="xMidYMid meet">
<metadata>
Created by potrace 1.11, written by Peter Selinger 2001-2013
</metadata>
<g transform="translate(0.000000,98.000000) scale(0.100000,-0.100000)"
fill="#000000" stroke="none">
<path d="M463 793 c-9 -21 -22 -41 -27 -45 -6 -4 -11 -11 -11 -15 0 -6 -49
-96 -60 -111 -6 -7 -35 12 -35 23 0 16 -30 29 -41 18 -8 -9 -31 -49 -92 -163
-22 -41 -49 -87 -59 -102 -11 -16 -16 -28 -11 -28 4 0 3 -4 -4 -8 -6 -4 -29
-40 -51 -81 -21 -40 -46 -81 -54 -90 -8 -10 -15 -25 -15 -34 0 -16 38 -17 489
-17 416 0 488 2 488 14 0 8 -7 22 -16 30 -8 9 -13 16 -10 16 4 0 -5 18 -19 40
-14 22 -22 40 -18 40 5 0 0 5 -9 11 -10 5 -18 19 -18 29 0 10 -5 22 -10 25 -6
3 -18 23 -29 43 -30 60 -66 127 -71 132 -3 3 -12 19 -20 35 -8 17 -17 32 -20
35 -3 3 -13 21 -24 41 -21 43 -40 44 -67 3 -15 -23 -19 -25 -19 -10 0 11 -3
17 -6 13 -6 -6 -46 61 -86 145 -28 59 -51 62 -75 11z m41 -39 c9 -3 16 -10 16
-15 0 -5 11 -27 25 -49 14 -22 25 -47 25 -55 0 -9 4 -14 9 -11 10 7 25 -40 22
-69 -2 -11 -9 -27 -17 -36 -8 -8 -14 -21 -14 -27 0 -6 -6 -17 -12 -24 -18 -19
-54 -90 -50 -101 8 -25 -31 15 -51 54 -34 62 -51 93 -57 99 -17 17 -28 50 -20
55 6 4 8 11 5 16 -4 5 -2 9 3 9 10 0 28 30 74 118 12 23 23 42 24 42 1 0 9 -3
18 -6z m-176 -186 c-2 -16 -10 -33 -18 -38 -8 -6 -11 -10 -6 -10 5 0 3 -7 -4
-15 -7 -8 -9 -15 -4 -15 5 0 4 -4 -2 -8 -6 -4 -31 -43 -57 -86 -34 -60 -42
-82 -34 -91 14 -13 59 -27 52 -16 -7 12 109 7 117 -4 4 -5 8 -1 8 10 0 13 3
16 8 8 4 -6 20 -10 35 -9 15 2 27 -1 27 -5 0 -5 -6 -9 -12 -9 -9 0 -8 -4 2
-10 11 -7 11 -10 2 -10 -7 0 -10 -4 -7 -10 3 -5 1 -10 -5 -10 -6 0 -8 -5 -5
-10 3 -6 -1 -13 -9 -16 -9 -3 -16 -12 -16 -20 0 -8 -7 -14 -15 -14 -8 0 -15
-3 -15 -7 0 -8 -302 -5 -310 3 -2 3 1 9 9 13 7 5 13 12 14 17 2 21 22 64 29
64 4 0 8 9 8 20 0 11 3 20 8 20 4 0 18 21 32 48 14 26 35 62 48 80 13 17 20
32 17 32 -4 0 3 13 14 29 11 15 18 31 14 35 -3 3 -1 6 5 6 6 0 14 9 17 20 9
27 34 52 46 44 6 -3 8 -19 7 -36z m372 30 c0 -15 35 -88 42 -88 5 0 8 -7 8
-15 0 -8 5 -15 11 -15 5 0 8 -4 5 -8 -3 -5 6 -25 19 -45 14 -20 25 -41 25 -46
0 -6 3 -11 8 -11 4 0 13 -15 21 -32 8 -18 21 -41 29 -50 8 -10 11 -18 7 -18
-4 0 -1 -8 8 -18 10 -10 14 -22 10 -25 -3 -4 -1 -7 6 -7 7 0 9 -5 6 -10 -3 -6
0 -13 9 -16 8 -3 13 -11 10 -17 -5 -13 -54 -17 -54 -4 0 5 -5 5 -11 1 -6 -3
-64 -7 -128 -8 -126 -1 -152 8 -165 60 -4 13 -11 24 -17 24 -6 0 -7 5 -4 10 3
6 2 10 -3 10 -5 0 -9 6 -9 14 0 8 8 11 20 8 10 -3 23 1 28 9 7 12 9 11 9 -2 0
-13 9 -14 50 -9 33 4 50 3 51 -4 0 -6 3 -5 6 2 4 10 8 10 19 1 8 -6 14 -7 14
-2 0 5 9 9 20 9 11 0 20 -5 20 -10 0 -5 6 -1 14 9 14 19 17 12 -75 173 -10 17
-16 32 -12 32 4 0 -1 6 -11 13 -20 15 -33 77 -16 77 6 0 9 4 6 8 -3 5 1 9 9 9
8 0 15 -4 15 -9z m-345 -88 c-3 -5 1 -10 10 -10 9 0 14 -4 10 -9 -3 -6 2 -14
11 -19 9 -5 15 -12 15 -16 -2 -8 28 -66 42 -85 17 -20 17 -39 0 -45 -7 -3 -12
-2 -9 2 4 7 -125 8 -153 1 -25 -7 -24 31 2 69 13 21 27 47 31 60 4 12 12 22
17 22 5 0 9 9 9 20 0 11 5 20 11 20 5 0 7 -4 4 -10z m292 -7 c4 -10 9 -20 12
-23 3 -3 17 -27 31 -55 14 -27 31 -56 37 -63 9 -10 10 -19 3 -33 -11 -19 -21
-26 -19 -11 3 19 -2 25 -11 12 -8 -12 -10 -12 -10 -1 0 11 -5 9 -22 -5 -12
-10 -18 -14 -15 -7 4 6 3 14 -3 18 -5 3 -10 1 -10 -5 0 -8 -6 -8 -20 0 -15 8
-20 8 -20 -2 0 -9 -3 -9 -10 2 -8 13 -10 13 -10 1 0 -12 -3 -12 -12 -3 -9 9
-14 8 -22 -4 -10 -13 -12 -10 -14 15 -1 17 1 31 5 31 5 0 26 34 48 75 22 41
44 75 48 75 4 0 11 -8 14 -17z m-118 -288 c10 -18 17 -36 14 -39 -4 -3 -28 -6
-55 -6 -47 0 -49 1 -42 23 3 12 11 24 15 25 5 2 7 8 3 13 -3 5 0 9 5 9 6 0 11
7 11 16 0 22 22 3 49 -41z"/>
</g>
</svg>
