<svg width="39" height="42" viewBox="0 0 39 42" xmlns="http://www.w3.org/2000/svg"><title>icon</title><path d="M27.422 20.633C27.422 9.79 23.736 1 19.19 1c-4.548 0-8.234 8.79-8.234 19.633s3.686 19.634 8.233 19.634c4.546 0 8.232-8.79 8.232-19.634zm-12.35-7.13C5.682 18.925-.818 26.513 1.456 30.45c2.273 3.938 12.46 2.735 21.85-2.687 9.39-5.42 15.89-13.008 13.616-16.946-2.273-3.938-12.46-2.735-21.85 2.686zm0 14.26c9.39 5.422 19.577 6.625 21.85 2.687 2.274-3.938-4.225-11.525-13.616-16.947-9.39-5.42-19.577-6.624-21.85-2.686-2.274 3.938 4.225 11.525 13.616 16.946zm6.65-7.13c0 1.4-1.135 2.534-2.533 2.534-1.4 0-2.534-1.134-2.534-2.534 0-1.398 1.133-2.533 2.533-2.533 1.397 0 2.532 1.135 2.532 2.533z" stroke="#FF5274" stroke-width="2" stroke-linecap="round" stroke-linejoin="round" fill="none" fill-rule="evenodd"/></svg>