<svg width="29" height="42" viewBox="0 0 29 42" xmlns="http://www.w3.org/2000/svg"><title>icon</title><path d="M13.807 29l5.34 1.256s.948.335.948-.83c0 0-.01.483 0-.103.02-1.4.263-2.035 2.798-4.778.006-.006.01.007.016 0 2.272-1.91 4.817-4.93 4.817-10.18C27.727 6.25 21.1 1 14.364 1 7.524 1 1 6.41 1 14.364c0 5.09 2.545 8.272 4.82 10.18.004.008.01-.005.014 0 2.535 2.744 2.778 3.378 2.8 4.78.007.585 0 .675 0 .675 0 .69-.15 1.304.64 1.545l10.3 2.267m-10.3 1.152l10.18 2.31M9.91 38.598l8.272 1.855" stroke="#FF5274" stroke-width="2" stroke-linecap="round" stroke-linejoin="round" fill="none" fill-rule="evenodd"/></svg>