<svg width="42" height="42" viewBox="0 0 42 42" xmlns="http://www.w3.org/2000/svg"><title>icon</title><g fill="none" fill-rule="evenodd"><path d="M31.605 23.205l8.57 8.61c.532.535.432 1.495-.1 2.027l-6.39 6.497c-.53.534-1.78.778-2.555 0 0 0-3.29-3.54-8.088-8.36m-12.938-13c-4.927-4.952-8.37-8.254-8.37-8.254-.53-.533-.878-1.685 0-2.568l6.39-6.422c.53-.533 1.57-.99 2.556 0 0 0 3.19 3.648 8.157 8.64m10.615 27.72l4.873-4.896m-8.654.99l2.265-2.274M3.863 12.438l4.9-4.923m-1.037 8.75l2.315-2.328" stroke="#FF5274" stroke-width="2" stroke-linecap="round" stroke-linejoin="round"/><path d="M5.134 28.404l21.983-22.09 8.6 8.644-21.84 22.095L1.094 40.88l4.04-12.476z"/><path d="M5.134 28.404l21.983-22.09 8.6 8.644-21.84 22.095L1.094 40.88l4.04-12.476z" stroke="#FF5274" stroke-width="2" stroke-linecap="round" stroke-linejoin="round"/><path d="M35.682 14.958l4.78-4.802c.527-.53.527-1.39 0-1.92L33.77 1.51c-.528-.53-1.384-.53-1.912 0l-4.78 4.803" stroke="#FF5274" stroke-width="2" stroke-linecap="round" stroke-linejoin="round"/><path d="M33.35 12.615L12.6 33.2l1.103 3.845M5.1 28.405l3.71.845L29.33 8.574" stroke="#FF5274" stroke-width="2" stroke-linejoin="round"/><path d="M8.763 29.348V33.2h3.835" stroke="#FF5274" stroke-width="2" stroke-linecap="round" stroke-linejoin="round"/></g></svg>