<svg width="41" height="37" viewBox="0 0 41 37" xmlns="http://www.w3.org/2000/svg"><title>Imported Layers</title><path d="M1 35.444c1.53-5.703 8.896-6.16 10.496-6.855 2.833-1.23 3.867-3.143 4.183-4.793-1.767-1.525-3.2-3.788-4.08-6.253-1.237-1.346-1.972-2.82-1.972-4.036 0-.862.376-1.438 1.033-1.83.254-5.926 4.502-10.647 9.73-10.675.017 0 .032-.003.05-.003.04 0 .08.007.12.007 5.262.074 9.516 4.896 9.667 10.902.45.38.707.89.707 1.598 0 1.033-.535 2.253-1.453 3.423-.892 2.83-2.517 5.453-4.557 7.094.316 1.65 1.35 3.563 4.184 4.793 1.6.694 8.966.924 10.495 6.627" stroke="#FF5274" stroke-width="2" stroke-linecap="round" stroke-linejoin="round" fill="none" fill-rule="evenodd"/></svg>