<svg width="31" height="38" viewBox="0 0 31 38" xmlns="http://www.w3.org/2000/svg"><title>Imported Layers</title><path d="M9.752 1.803h10-10zm19.004 30.473l-6.893-11.028-.1-.14c-.527-.755-3.122-5.2-3.122-9.027V4.027h-7.777v8.055c0 4.068-2.83 9.15-2.84 9.167L1.86 32.277c-1.77 2.49-.72 3.97 2.337 3.97H26.42c3.054 0 4.106-1.48 2.336-3.97zm-20.8-10.28c1.046.596 2.004 1.244 4.084 1.244 3.856 0 3.856-2.222 7.71-2.222.882 0 1.563.116 2.134.296l-13.928.682z" stroke="#FF5274" stroke-width="2" stroke-linecap="round" stroke-linejoin="round" fill="none" fill-rule="evenodd"/></svg>