<svg xmlns="http://www.w3.org/2000/svg" width="30" height="32" viewBox="0 0 30 32"><path fill="#3e3d3d" d="M8.179 15.768q-1.321-2.893-1.321-6.625H2.287v1.714q0 1.393 1.688 2.893t4.205 2.018zm19.25-4.911V9.143h-4.571q0 3.732-1.321 6.625 2.518-.518 4.205-2.018t1.688-2.893zm2.285-2.286v2.286q0 1.268-.741 2.554t-2 2.321-3.089 1.741-3.848.795q-.75.964-1.696 1.696-.679.607-.938 1.295t-.259 1.598q0 .964.545 1.625t1.741.661q1.339 0 2.384.813t1.045 2.045v1.143q0 .25-.161.411t-.411.161H7.429q-.25 0-.411-.161t-.161-.411v-1.143q0-1.232 1.045-2.045t2.384-.813q1.196 0 1.741-.661t.545-1.625q0-.911-.259-1.598t-.938-1.295q-.946-.732-1.696-1.696-2.018-.089-3.848-.795t-3.089-1.741-2-2.321-.741-2.554V8.571q0-.714.5-1.214t1.214-.5h5.143V5.143q0-1.179.839-2.018t2.018-.839h10.286q1.179 0 2.018.839t.839 2.018v1.714h5.143q.714 0 1.214.5t.5 1.214z"/></svg>