<svg xmlns="http://www.w3.org/2000/svg" width="18" height="32" viewBox="0 0 18 32"><path fill="#3e3d3d" d="M13.143 10.286q0 .232-.17.402t-.402.17-.402-.17-.17-.402q0-.821-.964-1.268t-1.893-.446q-.232 0-.402-.17T8.57 8t.17-.402.402-.17q.893 0 1.777.286t1.554.964.67 1.607zm2.857 0Q16 9 15.384 7.893T13.777 6.08t-2.196-1.107-2.438-.402-2.438.402T4.509 6.08 2.902 7.893t-.616 2.393q0 1.804 1.214 3.214.179.196.545.589t.545.589q2.286 2.732 2.518 5.321h4.071q.232-2.589 2.518-5.321.179-.196.545-.589t.545-.589q1.214-1.411 1.214-3.214zm2.286 0q0 2.768-1.839 4.786-.804.875-1.33 1.554t-1.063 1.705-.607 1.92q.839.5.839 1.464 0 .661-.446 1.143.446.482.446 1.143 0 .929-.804 1.446.232.411.232.839 0 .821-.563 1.268T11.767 28q-.357.786-1.071 1.25t-1.554.464-1.554-.464T6.517 28q-.821 0-1.384-.446t-.563-1.268q0-.429.232-.839-.804-.518-.804-1.446 0-.661.446-1.143-.446-.482-.446-1.143 0-.964.839-1.464-.071-.893-.607-1.92t-1.063-1.705-1.33-1.554q-1.839-2.018-1.839-4.786 0-1.768.795-3.295t2.089-2.536 2.929-1.589 3.33-.58 3.33.58T15.4 4.455t2.089 2.536.795 3.295z"/></svg>