<svg xmlns="http://www.w3.org/2000/svg" width="136" height="79" viewBox="0 0 136 79"><style><![CDATA[
.style0 {
  font-size: 21px;
  font-family: "Myriad Pro";
  font-weight: 400;
  fill: rgb(255,255,255);
}
]]></style><path fill="#FFF" d="M0 38h20v1H0zM116 38h20v1h-20z"/><text transform="translate(-732 -378)" class="style0"><tspan y="425" x="791.5" fill="#FFF">M</tspan></text><path d="M70.09 2.73L67.36 0l-18.3 18.31L30.73 0 28 2.73l18.33 18.35L28 39.43l2.73 2.73 18.33-18.35 2.7-2.73L70.09 2.73z" fill="#FFF"/><path d="M65.91 2.73L68.64 0l18.3 18.31L105.27 0 108 2.73 89.67 21.08 108 39.43l-2.73 2.73-18.33-18.35-2.7-2.73L65.91 2.73zM70.09 76.26L67.36 79l-18.3-18.32L30.73 79 28 76.26l18.33-18.34L28 39.57l2.73-2.73 18.33 18.34 2.7 2.74 18.33 18.34z" fill="#FFF"/><path d="M65.91 76.26L68.64 79l18.3-18.32L105.27 79l2.73-2.74-18.33-18.34L108 39.57l-2.73-2.73-18.33 18.34-2.7 2.74-18.33 18.34z" fill="#FFF"/></svg>