<svg xmlns="http://www.w3.org/2000/svg" width="140" height="39" viewBox="0 0 140 39"><style><![CDATA[
.style0 {
  font-size: 13px;
  font-family: "Varela";
  fill: rgb(255,255,255);
}
.style1 {
  font-size: 26px;
  font-family: "OpenSans-Extrabold";
  fill: rgb(255,255,255);
}
.style2 {
  font-size: 14px;
  font-family: "FontAwesome";
  fill: rgb(255,255,255);
}
]]></style><path d="M20.5 1.29L19.2 0l-8.68 8.68L1.81 0 .52 1.29 9.22 10l-8.7 8.7L1.81 20l8.71-8.71L11.8 10l8.7-8.71z" fill="#FFF"/><path d="M18.52 1.29L19.81 0l8.69 8.68L37.2 0l1.3 1.29L29.8 10l8.7 8.7-1.3 1.3-8.7-8.71L27.22 10l-8.7-8.71zM20.5 35.7L19.2 37l-8.68-8.69L1.81 37 .52 35.7l8.7-8.7-8.7-8.7L1.81 17l8.71 8.7L11.8 27l8.7 8.7z" fill="#FFF"/><path d="M18.52 35.7l1.29 1.3 8.69-8.69L37.2 37l1.3-1.3-8.7-8.7 8.7-8.7-1.3-1.3-8.7 8.7-1.28 1.3-8.7 8.7z" fill="#FFF"/><text transform="translate(-215 -50)" class="style0"><tspan y="88" x="262.00 272.35 277.70 284.05 286.40 294.75 300.10 305.45 307.80 315.15 323.50 328.85" fill="#FFF">WEB DESIGNER</tspan></text><text transform="translate(-215 -50)" class="style1"><tspan y="70" x="261.00 282.00 288.00 302.00" fill="#FFF">MiKE</tspan></text><path d="M114 10.5l5 5v-10l-5 5z" fill="#196FBF"/><text transform="translate(-215 -50)" class="style2"><tspan y="74" x="231.5" fill="#FFF"></tspan></text></svg>