<?xml version="1.0" encoding="utf-8"?>
<svg xmlns="http://www.w3.org/2000/svg"
	xmlns:xlink="http://www.w3.org/1999/xlink"
	width="20px" height="25px" viewBox="0 0 20 25">
<path fillRule="evenodd" d="M 19 8C 19 8 16 8 16 8 16 8 16 6 16 6 16 2.69 13.31-0 10-0 6.69-0 4 2.69 4 6 4 6 4 8 4 8 4 8 1 8 1 8 0.45 8 0 8.45 0 9 0 9 0 10 0 10 0 10 0 23 0 23 0 24.11 0.89 25 2 25 2 25 18 25 18 25 19.11 25 20 24.11 20 23 20 23 20 10 20 10 20 10 20 9 20 9 20 8.45 19.55 8 19 8ZM 6 6C 6 3.79 7.79 2 10 2 12.21 2 14 3.79 14 6 14 6 14 8 14 8 14 8 6 8 6 8 6 8 6 6 6 6ZM 18 22C 18 22.55 18.55 23 18 23 18 23 3 23 3 23 2.45 23 2 22.55 2 22 2 22 2 21 2 21 2 21 18 21 18 21 18 21 18 22 18 22ZM 18 19C 18 19 2 19 2 19 2 19 2 10 2 10 2 10 4 10 4 10 4 10 4 11 4 11 4 11.55 4.45 12 5 12 5.55 12 6 11.55 6 11 6 11 6 10 6 10 6 10 14 10 14 10 14 10 14 11 14 11 14 11.55 14.45 12 15 12 15.55 12 16 11.55 16 11 16 11 16 10 16 10 16 10 18 10 18 10 18 10 18 19 18 19Z" fill="rgb(255,255,255)"/></svg>