<?xml version="1.0" encoding="utf-8"?>
<svg xmlns="http://www.w3.org/2000/svg"
	xmlns:xlink="http://www.w3.org/1999/xlink"
	width="60px" height="20px" viewBox="0 0 60 20">
<path fillRule="evenodd" d="M 57.24 15C 57.24 15 53.87 15 53.87 15 53.87 15 56.61-0.02 56.61-0.02 56.61-0.02 60.02-0.02 60.02-0.02 60.02-0.02 57.24 15 57.24 15ZM 52.34 15C 52.34 15 49.02 15 49.02 15 49.02 15 49.24 13.82 49.24 13.82 47.43 15.96 42.9 16.1 43.63 11.18 44.15 8.32 46.66 7.4 50.38 7.4 50.64 6.12 49.91 5.81 48.65 5.86 47.39 5.9 45.88 6.4 45.41 6.67 45.41 6.67 45.7 3.81 45.7 3.81 46.66 3.58 47.91 3.08 49.5 3.08 51.82 3.03 54.37 3.85 53.78 7.17 53.78 7.17 52.34 15 52.34 15ZM 49.09 10.05C 48.46 10.05 47.43 10.22 47.06 11 46.58 11.91 47.24 12.68 47.99 12.63 48.83 12.59 49.53 12.14 49.72 11.09 49.79 10.72 49.83 10.41 49.9 10.05 49.65 10.05 49.35 10.05 49.09 10.05ZM 39.28 10.05C 39.28 10.05 36.72 10.05 36.72 10.05 36.72 10.05 35.8 15 35.8 15 35.8 15 32.21 15 32.21 15 32.21 15 34.95 0.03 34.95 0.03 34.95 0.03 41.12 0.03 41.12 0.03 42.9 0.03 45.05 1.62 44.41 5.13 43.86 8.22 41.79 10.05 39.28 10.05ZM 39.76 3.08C 39.76 3.08 37.98 3.08 37.98 3.08 37.98 3.08 37.25 7.17 37.25 7.17 37.25 7.17 38.91 7.17 38.91 7.17 39.83 7.17 40.79 6.26 41.01 5.13 41.23 3.99 40.68 3.08 39.76 3.08ZM 21.81 19.99C 21.81 19.99 24.23 15.08 24.23 15.08 24.23 15.08 22.88 3.29 22.88 3.29 22.88 3.29 26.19 3.29 26.19 3.29 26.19 3.29 26.73 10.26 26.73 10.26 26.73 10.26 29.97 3.29 29.97 3.29 29.97 3.29 33.4 3.29 33.4 3.29 33.4 3.29 25.51 19.99 25.51 19.99 25.51 19.99 21.81 19.99 21.81 19.99ZM 20.02 15C 20.02 15 16.7 15 16.7 15 16.7 15 16.92 13.82 16.92 13.82 15.17 15.96 10.69 16.1 11.42 11.18 11.93 8.32 14.4 7.4 18.08 7.4 18.3 6.12 17.58 5.81 16.34 5.86 15.1 5.9 13.61 6.4 13.17 6.67 13.17 6.67 13.46 3.81 13.46 3.81 14.37 3.58 15.61 3.08 17.18 3.08 19.47 3.03 22.02 3.85 21.43 7.17 21.43 7.17 20.02 15 20.02 15ZM 16.78 10.05C 16.19 10.05 15.17 10.22 14.81 11 14.34 11.91 14.96 12.68 15.68 12.63 16.52 12.59 17.25 12.14 17.43 11.09 17.47 10.72 17.54 10.41 17.61 10.05 17.32 10.05 17.06 10.05 16.78 10.05ZM 7.12 10.04C 7.12 10.04 4.52 10.04 4.52 10.04 4.52 10.04 3.63 15 3.63 15 3.63 15 0 15 0 15 0 15 2.75 0.03 2.75 0.03 2.75 0.03 8.93 0.03 8.93 0.03 10.75 0.03 12.86 1.62 12.23 5.12 11.67 8.22 9.6 10.04 7.12 10.04ZM 7.6 3.08C 7.6 3.08 5.82 3.08 5.82 3.08 5.82 3.08 5.04 7.17 5.04 7.17 5.04 7.17 6.75 7.17 6.75 7.17 7.67 7.17 8.6 6.26 8.82 5.13 9.08 3.99 8.49 3.08 7.6 3.08Z" fill="rgb(255,255,255)"/></svg>