<?xml version="1.0" standalone="no"?>
<!DOCTYPE svg PUBLIC "-//W3C//DTD SVG 20010904//EN"
 "http://www.w3.org/TR/2001/REC-SVG-20010904/DTD/svg10.dtd">
<svg version="1.0" xmlns="http://www.w3.org/2000/svg"
 width="192.000000pt" height="192.000000pt" viewBox="0 0 192.000000 192.000000"
 preserveAspectRatio="xMidYMid meet">
<metadata>
Created by potrace 1.11, written by Peter Selinger 2001-2013
</metadata>
<g transform="translate(0.000000,192.000000) scale(0.100000,-0.100000)"
fill="#000000" stroke="none">
<path d="M585 1900 c-4 -7 -114 -309 -355 -975 -83 -231 -167 -462 -186 -513
-19 -51 -34 -96 -34 -100 0 -8 486 -10 492 -2 3 3 12 25 21 50 9 25 55 153
102 285 99 273 212 586 356 983 54 151 99 274 99 275 0 5 -492 1 -495 -3z"/>
<path d="M1214 1890 c-21 -53 -154 -436 -154 -445 0 -14 475 -14 488 0 15 15
163 447 157 454 -4 3 -114 6 -246 6 -204 0 -240 -2 -245 -15z"/>
<path d="M975 1205 c-7 -5 -22 -37 -33 -70 -62 -182 -123 -352 -132 -367 -13
-22 -36 -20 248 -22 152 -1 237 3 242 9 16 19 162 446 155 453 -11 11 -467 8
-480 -3z"/>
<path d="M1595 795 c-139 -41 -234 -145 -290 -315 -25 -73 -25 -216 -2 -286
73 -215 349 -251 553 -71 44 38 44 40 27 59 -39 43 -52 43 -114 -1 -32 -23
-65 -41 -73 -41 -8 0 -17 -4 -21 -10 -3 -5 -39 -8 -80 -7 -82 2 -115 19 -148
75 -20 33 -38 134 -28 151 4 6 31 13 61 16 147 16 286 58 352 104 91 64 108
190 36 268 -53 58 -183 86 -273 58z m140 -100 c79 -30 69 -132 -17 -174 -50
-24 -184 -59 -243 -63 -47 -4 -48 5 -9 88 60 127 168 186 269 149z"/>
</g>
</svg>
