<svg xmlns="http://www.w3.org/2000/svg" width="32" height="32" viewBox="0 0 32 32"><path fill="#3e3d3d" d="M25.143 13.714q0 2.482-1.679 4.589t-4.58 3.33-6.313 1.223q-1.536 0-3.143-.286-2.214 1.571-4.964 2.286-.643.161-1.536.286h-.054q-.196 0-.366-.143t-.205-.375q-.018-.054-.018-.116t.009-.116.036-.107l.045-.089.063-.098.071-.089.08-.089.071-.08q.089-.107.411-.446t.464-.527.402-.518.446-.688.366-.786q-2.214-1.286-3.482-3.161t-1.268-4q0-2.482 1.679-4.589t4.58-3.33 6.312-1.223 6.313 1.223 4.58 3.33 1.679 4.589zM32 18.286q0 2.143-1.268 4.009t-3.482 3.152q.179.429.366.786t.446.688.402.518.464.527.411.446q.018.018.071.08t.08.089.071.089.063.098l.045.089.036.107.009.116-.018.116q-.054.25-.232.393t-.393.125q-.893-.125-1.536-.286-2.75-.714-4.964-2.286-1.607.286-3.143.286-4.839 0-8.429-2.357 1.036.071 1.571.071 2.875 0 5.518-.804t4.714-2.304q2.232-1.643 3.429-3.786t1.196-4.536q0-1.375-.411-2.714 2.304 1.268 3.643 3.179t1.339 4.107z"/></svg>