<?xml version="1.0" encoding="utf-8"?>
<!-- Generator: Adobe Illustrator 15.0.0, SVG Export Plug-In . SVG Version: 6.00 Build 0)  -->
<!DOCTYPE svg PUBLIC "-//W3C//DTD SVG 1.0//EN" "http://www.w3.org/TR/2001/REC-SVG-20010904/DTD/svg10.dtd">
<svg version="1.0" id="Layer_1" xmlns="http://www.w3.org/2000/svg" xmlns:xlink="http://www.w3.org/1999/xlink" x="0px" y="0px"
	 width="60px" height="40.375px" viewBox="0 0 60 40.375" enable-background="new 0 0 60 40.375" xml:space="preserve">
<path fill="#FFFFFF" d="M60.498,28.32c0-0.054-0.009-0.105-0.016-0.158c-0.006-0.049-0.009-0.098-0.02-0.146
	c-0.002-0.009-0.001-0.017-0.003-0.025L55.287,6.651C54.926,4.303,52.694,0,46.688,0c-0.829,0-1.5,0.671-1.5,1.5s0.671,1.5,1.5,1.5
	c4.856,0,5.575,3.729,5.639,4.143l4.767,19.701h-2.073c-0.742-5.927-5.802-10.531-11.927-10.531s-11.186,4.604-11.927,10.531h-1.708
	c-0.742-5.927-5.802-10.531-11.927-10.531S6.346,20.917,5.604,26.844H3.407L8.146,7.291l0.028-0.148C8.197,6.973,8.802,3,13.812,3
	c0.829,0,1.5-0.671,1.5-1.5S14.641,0,13.812,0C7.806,0,5.574,4.303,5.213,6.651L0.042,27.99c-0.002,0.009-0.001,0.017-0.003,0.025
	c-0.011,0.049-0.014,0.098-0.02,0.146c-0.007,0.053-0.016,0.104-0.016,0.158C0.002,28.328,0,28.336,0,28.344
	c0,0.035,0.008,0.068,0.01,0.103c0.004,0.058,0.007,0.115,0.017,0.171c0.009,0.046,0.023,0.091,0.036,0.136
	c0.014,0.048,0.026,0.096,0.044,0.142c0.018,0.046,0.042,0.09,0.064,0.133c0.021,0.042,0.042,0.085,0.067,0.124
	c0.026,0.04,0.057,0.077,0.086,0.114c0.03,0.039,0.06,0.078,0.093,0.113c0.032,0.033,0.067,0.062,0.102,0.092
	c0.039,0.033,0.076,0.067,0.117,0.097c0.039,0.027,0.082,0.05,0.123,0.073c0.042,0.024,0.083,0.051,0.128,0.07
	c0.049,0.021,0.101,0.037,0.152,0.054c0.036,0.012,0.068,0.028,0.105,0.037c0.008,0.002,0.015,0.001,0.023,0.003
	c0.107,0.023,0.217,0.039,0.331,0.039h0.001h4.103c0.742,5.927,5.802,10.531,11.927,10.531s11.186-4.604,11.927-10.531h1.708
	c0.742,5.927,5.802,10.531,11.927,10.531s11.186-4.604,11.927-10.531h3.978H59c0.114,0,0.224-0.016,0.331-0.039
	c0.008-0.002,0.015-0.001,0.023-0.003c0.037-0.009,0.07-0.025,0.105-0.037c0.052-0.017,0.104-0.032,0.152-0.054
	c0.045-0.02,0.086-0.046,0.128-0.07c0.042-0.023,0.084-0.046,0.123-0.073c0.042-0.029,0.079-0.063,0.117-0.097
	c0.034-0.029,0.07-0.059,0.102-0.092c0.034-0.035,0.063-0.074,0.093-0.113c0.029-0.037,0.06-0.074,0.086-0.114
	c0.025-0.039,0.045-0.082,0.067-0.124c0.023-0.043,0.046-0.087,0.064-0.133c0.019-0.046,0.031-0.094,0.044-0.142
	c0.013-0.045,0.027-0.09,0.036-0.136c0.01-0.056,0.013-0.113,0.017-0.171c0.002-0.034,0.01-0.067,0.01-0.103
	C60.5,28.336,60.498,28.328,60.498,28.32z M17.531,37.375c-4.475,0-8.181-3.259-8.896-7.531c-0.082-0.489-0.135-0.988-0.135-1.5
	s0.053-1.011,0.135-1.5c0.716-4.271,4.421-7.531,8.896-7.531s8.181,3.26,8.896,7.531c0.082,0.489,0.135,0.988,0.135,1.5
	s-0.053,1.011-0.135,1.5C25.712,34.116,22.006,37.375,17.531,37.375z M43.094,37.375c-4.475,0-8.181-3.259-8.896-7.531
	c-0.082-0.489-0.135-0.988-0.135-1.5s0.053-1.011,0.135-1.5c0.716-4.271,4.421-7.531,8.896-7.531s8.181,3.26,8.896,7.531
	c0.082,0.489,0.135,0.988,0.135,1.5s-0.053,1.011-0.135,1.5C51.274,34.116,47.569,37.375,43.094,37.375z"/>
</svg>
