<?xml version="1.0" standalone="no"?>
<!DOCTYPE svg PUBLIC "-//W3C//DTD SVG 20010904//EN"
 "http://www.w3.org/TR/2001/REC-SVG-20010904/DTD/svg10.dtd">
<svg version="1.0" xmlns="http://www.w3.org/2000/svg"
 width="158.000000pt" height="158.000000pt" viewBox="0 0 158.000000 158.000000"
 preserveAspectRatio="xMidYMid meet">
<metadata>
Created by potrace 1.11, written by Peter Selinger 2001-2013
</metadata>
<g transform="translate(0.000000,158.000000) scale(0.100000,-0.100000)"
fill="#000000" stroke="none">
<path d="M649 1565 c-214 -52 -396 -221 -462 -430 -32 -101 -31 -279 2 -385
40 -128 82 -197 206 -336 93 -104 147 -165 225 -254 125 -142 146 -162 176
-158 35 4 69 48 59 78 -6 18 -80 106 -289 340 -198 223 -233 278 -261 412 -44
205 33 405 200 523 199 141 462 117 636 -57 91 -91 134 -184 145 -314 10 -118
-29 -258 -103 -365 -10 -15 -61 -72 -113 -128 l-95 -101 -25 27 c-14 16 -94
108 -178 205 -134 157 -152 182 -152 213 0 84 85 130 156 85 11 -7 36 -34 57
-60 21 -26 69 -80 106 -120 62 -66 71 -72 97 -66 34 9 53 33 54 67 0 35 -212
278 -266 305 -50 24 -165 26 -209 2 -131 -70 -169 -250 -75 -358 12 -14 43
-49 68 -79 55 -64 255 -296 314 -363 23 -27 44 -48 48 -48 8 0 167 165 279
290 134 149 199 393 157 588 -47 223 -216 406 -442 478 -66 21 -244 26 -315 9z"/>
</g>
</svg>
