<?xml version="1.0" encoding="UTF-8" standalone="no"?>
<svg width="13px" height="10px" viewBox="0 0 13 10" version="1.1" xmlns="http://www.w3.org/2000/svg" xmlns:xlink="http://www.w3.org/1999/xlink" xmlns:sketch="http://www.bohemiancoding.com/sketch/ns">
    <!-- Generator: Sketch 3.5.2 (25235) - http://www.bohemiancoding.com/sketch -->
    <title>Shape</title>
    <desc>Created with Sketch.</desc>
    <defs></defs>
    <g id="Page-1" stroke="none" stroke-width="1" fill="none" fill-rule="evenodd" sketch:type="MSPage">
        <path d="M12.3058223,1.18321675 C11.8535494,1.38550888 11.3658946,1.52011391 10.856703,1.5801093 C11.3782014,1.26782563 11.7774014,0.772479117 11.9673868,0.18329367 C11.479732,0.471733021 10.9382352,0.683255211 10.3644332,0.796323437 C9.90293024,0.305591954 9.24682686,0.001 8.52072887,0.001 C7.12622075,0.001 5.99707684,1.13091308 5.99707684,2.52465203 C5.99707684,2.72155996 6.01861365,2.91385286 6.06168725,3.09922321 C3.96338712,2.99307753 2.10276102,1.98853942 0.857472194,0.460195447 C0.641334974,0.832474502 0.515960003,1.26782563 0.515960003,1.72932859 C0.515960003,2.60464587 0.960541189,3.37843251 1.63818137,3.82993624 C1.22436705,3.81762949 0.835166218,3.70225375 0.493654027,3.51534505 L0.493654027,3.54688109 C0.493654027,4.77063311 1.36358711,5.79209299 2.51965203,6.02284447 C2.30812984,6.08053234 2.0843009,6.11206838 1.85354942,6.11206838 C1.69048504,6.11206838 1.53357403,6.0951466 1.3774322,6.06668725 C1.6997151,7.06891785 2.63195108,7.79963087 3.73571233,7.82116768 C2.87039428,8.49880786 1.7835548,8.90262295 0.599030536,8.90262295 C0.39443089,8.90262295 0.195215445,8.89031621 -0.004,8.86647189 C1.11591385,9.58487816 2.44273487,10.001 3.86800985,10.001 C8.51149881,10.001 11.0528418,6.15283447 11.0528418,2.81616806 C11.0528418,2.70540735 11.0505343,2.59772333 11.0459192,2.48927013 C11.5389582,2.13622037 11.9666176,1.69087001 12.3050531,1.18398592 L12.3058223,1.18321675 Z" id="Shape" fill="#A4A4A4" sketch:type="MSShapeGroup"></path>
    </g>
</svg>