<?xml version="1.0" encoding="UTF-8" standalone="no"?>
<svg width="10px" height="10px" viewBox="0 0 10 10" version="1.1" xmlns="http://www.w3.org/2000/svg" xmlns:xlink="http://www.w3.org/1999/xlink" xmlns:sketch="http://www.bohemiancoding.com/sketch/ns">
    <!-- Generator: Sketch 3.5.2 (25235) - http://www.bohemiancoding.com/sketch -->
    <title>Shape</title>
    <desc>Created with Sketch.</desc>
    <defs></defs>
    <g id="Page-1" stroke="none" stroke-width="1" fill="none" fill-rule="evenodd" sketch:type="MSPage">
        <path d="M9.0625,0 L0.9375,0 C0.421875,0 0,0.421875 0,0.9375 L0,9.0625 C0,9.578125 0.421875,10 0.9375,10 L5,10 L5,5.625 L3.75,5.625 L3.75,4.375 L5,4.375 L5,3.75 C5,2.716875 5.841875,1.875 6.875,1.875 L8.125,1.875 L8.125,3.125 L6.875,3.125 C6.53125,3.125 6.25,3.40625 6.25,3.75 L6.25,4.375 L8.125,4.375 L7.8125,5.625 L6.25,5.625 L6.25,10 L9.0625,10 C9.578125,10 10,9.578125 10,9.0625 L10,0.9375 C10,0.421875 9.578125,0 9.0625,0 L9.0625,0 Z" id="Shape" fill="#A4A4A4" sketch:type="MSShapeGroup"></path>
    </g>
</svg>