<?xml version="1.0" encoding="UTF-8" standalone="no"?>
<svg width="15px" height="10px" viewBox="0 0 15 10" version="1.1" xmlns="http://www.w3.org/2000/svg" xmlns:xlink="http://www.w3.org/1999/xlink" xmlns:sketch="http://www.bohemiancoding.com/sketch/ns">
    <!-- Generator: Sketch 3.5.2 (25235) - http://www.bohemiancoding.com/sketch -->
    <title>footer-behance</title>
    <desc>Created with Sketch.</desc>
    <defs></defs>
    <g id="Page-1" stroke="none" stroke-width="1" fill="none" fill-rule="evenodd" sketch:type="MSPage">
        <g id="footer-behance" sketch:type="MSLayerGroup" fill="#A4A4A4">
            <path d="M4.21909091,0.187272727 C4.64818182,0.187272727 5.03454545,0.224545455 5.38636364,0.300909091 C5.73909091,0.374545455 6.03727273,0.5 6.29,0.67 C6.54,0.840909091 6.73272727,1.06818182 6.87545455,1.35181818 C7.01181818,1.63272727 7.08,1.98545455 7.08,2.40272727 C7.08,2.85454545 6.97818182,3.22909091 6.77272727,3.53090909 C6.56545455,3.83181818 6.26454545,4.07636364 5.86090909,4.27 C6.41181818,4.42909091 6.81818182,4.70727273 7.09090909,5.10272727 C7.36363636,5.50090909 7.49454545,5.97818182 7.49454545,6.54 C7.49454545,6.99454545 7.40636364,7.38363636 7.23363636,7.71363636 C7.05727273,8.04636364 6.81909091,8.31545455 6.52636364,8.52363636 C6.23090909,8.73363636 5.89,8.88727273 5.50909091,8.98636364 C5.13090909,9.08545455 4.74181818,9.13727273 4.33909091,9.13727273 L0.000909090909,9.13727273 L0.000909090909,0.188181818 L4.22,0.188181818 L4.21909091,0.187272727 Z M3.96272727,3.80090909 C4.31181818,3.80090909 4.60181818,3.71818182 4.82909091,3.55090909 C5.05636364,3.38636364 5.16454545,3.11363636 5.16454545,2.73818182 C5.16454545,2.53090909 5.12727273,2.35727273 5.05363636,2.22363636 C4.97727273,2.09 4.87727273,1.98454545 4.75,1.91090909 C4.62454545,1.83454545 4.48272727,1.78272727 4.31545455,1.75454545 C4.15363636,1.72363636 3.98272727,1.70909091 3.81,1.70909091 L1.96909091,1.70909091 L1.96909091,3.8 L3.96363636,3.8 L3.96272727,3.80090909 Z M4.07090909,7.61090909 C4.26454545,7.61090909 4.44909091,7.59363636 4.62181818,7.55363636 C4.79818182,7.51363636 4.95454545,7.45454545 5.08454545,7.36363636 C5.21545455,7.27545455 5.32636364,7.15909091 5.40545455,7.00545455 C5.48545455,6.85454545 5.52181818,6.66181818 5.52181818,6.42636364 C5.52181818,5.96636364 5.39090909,5.63636364 5.13272727,5.43727273 C4.87454545,5.24090909 4.53090909,5.14454545 4.10454545,5.14454545 L1.96818182,5.14454545 L1.96818182,7.60727273 L4.07090909,7.60727273 L4.07090909,7.61090909 Z" id="Shape" sketch:type="MSShapeGroup"></path>
            <path d="M10.3009091,7.58 C10.5681818,7.84090909 10.9518182,7.97181818 11.4518182,7.97181818 C11.81,7.97181818 12.1227273,7.88090909 12.3809091,7.69909091 C12.6390909,7.51727273 12.7954545,7.32454545 12.8554545,7.12545455 L14.4236364,7.12545455 C14.1709091,7.90636364 13.79,8.46090909 13.2672727,8.79636364 C12.7527273,9.13181818 12.1227273,9.30181818 11.3918182,9.30181818 C10.88,9.30181818 10.4227273,9.21909091 10.0109091,9.05727273 C9.59909091,8.89272727 9.25545455,8.66272727 8.96545455,8.36090909 C8.68454545,8.06 8.46272727,7.70181818 8.30636364,7.28090909 C8.15272727,6.86363636 8.07363636,6.4 8.07363636,5.9 C8.07363636,5.41454545 8.15363636,4.96272727 8.31181818,4.54454545 C8.47363636,4.12363636 8.69545455,3.76363636 8.99090909,3.45909091 C9.28636364,3.15454545 9.63272727,2.91363636 10.0418182,2.73727273 C10.4481818,2.56090909 10.8972727,2.47272727 11.3945455,2.47272727 C11.9427273,2.47272727 12.4227273,2.57818182 12.8345455,2.79363636 C13.2436364,3.00636364 13.5818182,3.29363636 13.8463636,3.65181818 C14.1109091,4.01 14.2981818,4.42181818 14.4145455,4.88181818 C14.5309091,5.34181818 14.5709091,5.82181818 14.5390909,6.32545455 L9.86,6.32545455 C9.86,6.83363636 10.0309091,7.32 10.3,7.57818182 L10.3009091,7.58 Z M12.3436364,4.17636364 C12.1336364,3.94363636 11.7727273,3.81545455 11.3381818,3.81545455 C11.0536364,3.81545455 10.8181818,3.86363636 10.6309091,3.96 C10.4463636,4.05636364 10.2954545,4.17545455 10.1790909,4.31818182 C10.0654545,4.46 9.98545455,4.61363636 9.94090909,4.77545455 C9.89545455,4.93181818 9.86727273,5.07636364 9.85818182,5.20181818 L12.7563636,5.20181818 C12.7136364,4.74727273 12.5572727,4.41181818 12.3445455,4.17636364 L12.3436364,4.17636364 Z" id="Shape" sketch:type="MSShapeGroup"></path>
            <path d="M9.49454545,0.909090909 L13.1227273,0.909090909 L13.1227273,1.79272727 L9.49454545,1.79272727 L9.49454545,0.909090909 L9.49454545,0.909090909 Z" id="Shape" sketch:type="MSShapeGroup"></path>
        </g>
    </g>
</svg>