<svg xmlns="http://www.w3.org/2000/svg" width="30" height="32" viewBox="0 0 30 32"><path fill="#0cf" d="M13.714 5.714v12.571q0 1.857-.723 3.545t-1.955 2.92-2.92 1.955-3.545.723H3.428q-.464 0-.804-.339t-.339-.804v-2.286q0-.464.339-.804t.804-.339h1.143q1.893 0 3.232-1.339t1.339-3.232v-.571q0-.714-.5-1.214T7.428 16h-4q-1.429 0-2.429-1t-1-2.429V5.714q0-1.429 1-2.429t2.429-1h6.857q1.429 0 2.429 1t1 2.429zm16 0v12.571q0 1.857-.723 3.545t-1.955 2.92-2.92 1.955-3.545.723h-1.143q-.464 0-.804-.339t-.339-.804v-2.286q0-.464.339-.804t.804-.339h1.143q1.893 0 3.232-1.339t1.339-3.232v-.571q0-.714-.5-1.214t-1.214-.5h-4q-1.429 0-2.429-1t-1-2.429V5.714q0-1.429 1-2.429t2.429-1h6.857q1.429 0 2.429 1t1 2.429z"/></svg>