<?xml version="1.0" encoding="utf-8"?>
<svg xmlns="http://www.w3.org/2000/svg"
	xmlns:xlink="http://www.w3.org/1999/xlink"
	width="49px" height="17px" viewBox="0 0 49 17">
<path fillRule="evenodd" d="M 45.36 16.54C 45.36 16.54 44.86 14.19 44.86 14.19 44.86 14.19 39.91 14.19 39.91 14.19 39.91 14.19 39.12 16.54 39.12 16.54 39.12 16.54 35.06 16.54 35.06 16.54 35.06 16.54 40.9 2.12 40.9 2.12 41.2 1.4 41.79 0.99 42.58 0.99 42.58 0.99 45.95 0.99 45.95 0.99 45.95 0.99 48.92 16.54 48.92 16.54 48.92 16.54 45.36 16.54 45.36 16.54ZM 43.28 5.19C 43.28 5.19 41.2 11.02 41.2 11.02 41.2 11.02 44.47 11.02 44.47 11.02 44.47 11.02 43.28 5.19 43.28 5.19ZM 31.59 3.96C 30.41 4.17 29.91 4.78 29.91 5.29 29.81 7.13 35.36 7.44 35.36 11.32 35.36 14.6 32.68 16.64 28.62 16.64 26.84 16.64 25.16 16.23 24.27 15.82 24.27 15.82 24.96 12.45 24.96 12.45 25.85 12.96 26.94 13.47 28.92 13.47 30.11 13.47 31.3 12.96 31.3 11.94 31.3 11.22 30.8 10.71 29.32 9.99 27.93 9.28 25.95 8.05 25.95 5.8 25.95 2.84 28.62 0.69 32.48 0.69 33.97 0.69 35.26 1.1 36.15 1.4 36.15 1.4 35.46 4.68 35.46 4.68 33.67 3.86 32.19 3.86 31.59 3.96ZM 17.63 16.54C 17.63 16.54 20.9 0.99 20.9 0.99 20.9 0.99 24.76 0.99 24.76 0.99 24.76 0.99 21.59 16.54 21.59 16.54 21.59 16.54 17.63 16.54 17.63 16.54ZM 8.72 16.44C 8.72 16.44 5.65 4.06 5.65 4.06 5.46 3.35 5.36 3.04 4.76 2.73 3.77 2.22 2.29 1.71 0.9 1.4 0.9 1.4 1 0.99 1 0.99 1 0.99 7.63 0.99 7.63 0.99 8.43 0.99 9.22 1.51 9.42 2.53 9.42 2.53 11.1 11.53 11.1 11.53 11.1 11.53 15.16 0.99 15.16 0.99 15.16 0.99 15.16 0.89 15.16 0.89 15.16 0.89 19.22 0.89 19.22 0.89 19.22 0.89 12.88 16.44 12.88 16.44 12.88 16.44 8.72 16.44 8.72 16.44Z" fill="rgb(255,255,255)"/></svg>